%TF.GenerationSoftware,KiCad,Pcbnew,9.0.5*%
%TF.CreationDate,2025-10-27T10:50:58+09:00*%
%TF.ProjectId,GYRO_PCB,4759524f-5f50-4434-922e-6b696361645f,rev?*%
%TF.SameCoordinates,Original*%
%TF.FileFunction,Soldermask,Bot*%
%TF.FilePolarity,Negative*%
%FSLAX46Y46*%
G04 Gerber Fmt 4.6, Leading zero omitted, Abs format (unit mm)*
G04 Created by KiCad (PCBNEW 9.0.5) date 2025-10-27 10:50:58*
%MOMM*%
%LPD*%
G01*
G04 APERTURE LIST*
G04 Aperture macros list*
%AMRoundRect*
0 Rectangle with rounded corners*
0 $1 Rounding radius*
0 $2 $3 $4 $5 $6 $7 $8 $9 X,Y pos of 4 corners*
0 Add a 4 corners polygon primitive as box body*
4,1,4,$2,$3,$4,$5,$6,$7,$8,$9,$2,$3,0*
0 Add four circle primitives for the rounded corners*
1,1,$1+$1,$2,$3*
1,1,$1+$1,$4,$5*
1,1,$1+$1,$6,$7*
1,1,$1+$1,$8,$9*
0 Add four rect primitives between the rounded corners*
20,1,$1+$1,$2,$3,$4,$5,0*
20,1,$1+$1,$4,$5,$6,$7,0*
20,1,$1+$1,$6,$7,$8,$9,0*
20,1,$1+$1,$8,$9,$2,$3,0*%
G04 Aperture macros list end*
%ADD10RoundRect,0.250001X1.149999X-1.149999X1.149999X1.149999X-1.149999X1.149999X-1.149999X-1.149999X0*%
%ADD11C,2.800000*%
%ADD12R,2.000000X2.000000*%
%ADD13R,1.700000X1.700000*%
%ADD14C,1.700000*%
%ADD15R,1.800000X1.800000*%
%ADD16C,1.800000*%
%ADD17C,1.600000*%
%ADD18RoundRect,0.102000X-0.765000X-0.765000X0.765000X-0.765000X0.765000X0.765000X-0.765000X0.765000X0*%
%ADD19C,1.734000*%
G04 APERTURE END LIST*
D10*
%TO.C,J5*%
X174000000Y-73500000D03*
D11*
X174000000Y-68500000D03*
%TD*%
D12*
%TO.C,LM2596*%
X165500000Y-74105000D03*
X165500000Y-54505000D03*
X120700000Y-73945000D03*
X120700000Y-54905000D03*
%TD*%
D13*
%TO.C,J1*%
X157080000Y-90000000D03*
D14*
X154540000Y-90000000D03*
X152000000Y-90000000D03*
X149460000Y-90000000D03*
X157080000Y-87460000D03*
X154540000Y-87460000D03*
X152000000Y-87460000D03*
X149460000Y-87460000D03*
%TD*%
D15*
%TO.C,D1*%
X128000000Y-81460000D03*
D16*
X128000000Y-84000000D03*
%TD*%
D17*
%TO.C,R8*%
X122920000Y-91000000D03*
X133080000Y-91000000D03*
%TD*%
D10*
%TO.C,J4*%
X173967500Y-59750000D03*
D11*
X173967500Y-54750000D03*
%TD*%
D14*
%TO.C,J3*%
X154405000Y-121405000D03*
X154405000Y-118865000D03*
X154405000Y-116325000D03*
X154405000Y-113785000D03*
X154405000Y-111245000D03*
X154405000Y-108705000D03*
X154405000Y-106165000D03*
D13*
X154405000Y-103625000D03*
%TD*%
D18*
%TO.C,U1*%
X114880000Y-81310000D03*
D19*
X117420000Y-81310000D03*
X114880000Y-83850000D03*
X117420000Y-83850000D03*
X114880000Y-86390000D03*
X117420000Y-86390000D03*
X114880000Y-88930000D03*
X117420000Y-88930000D03*
X114880000Y-91470000D03*
X117420000Y-91470000D03*
X114880000Y-94010000D03*
X117420000Y-94010000D03*
X114880000Y-96550000D03*
X117420000Y-96550000D03*
X114880000Y-99090000D03*
X117420000Y-99090000D03*
X114880000Y-101630000D03*
X117420000Y-101630000D03*
X114880000Y-104170000D03*
X117420000Y-104170000D03*
X114880000Y-106710000D03*
X117420000Y-106710000D03*
X114880000Y-109250000D03*
X117420000Y-109250000D03*
X114880000Y-111790000D03*
X117420000Y-111790000D03*
X114880000Y-114330000D03*
X117420000Y-114330000D03*
X114880000Y-116870000D03*
X117420000Y-116870000D03*
X114880000Y-119410000D03*
X117420000Y-119410000D03*
X114880000Y-121950000D03*
X117420000Y-121950000D03*
X114880000Y-124490000D03*
X117420000Y-124490000D03*
X114880000Y-127030000D03*
X117420000Y-127030000D03*
D18*
X175840000Y-81310000D03*
D19*
X178380000Y-81310000D03*
X175840000Y-83850000D03*
X178380000Y-83850000D03*
X175840000Y-86390000D03*
X178380000Y-86390000D03*
X175840000Y-88930000D03*
X178380000Y-88930000D03*
X175840000Y-91470000D03*
X178380000Y-91470000D03*
X175840000Y-94010000D03*
X178380000Y-94010000D03*
X175840000Y-96550000D03*
X178380000Y-96550000D03*
X175840000Y-99090000D03*
X178380000Y-99090000D03*
X175840000Y-101630000D03*
X178380000Y-101630000D03*
X175840000Y-104170000D03*
X178380000Y-104170000D03*
X175840000Y-106710000D03*
X178380000Y-106710000D03*
X175840000Y-109250000D03*
X178380000Y-109250000D03*
X175840000Y-111790000D03*
X178380000Y-111790000D03*
X175840000Y-114330000D03*
X178380000Y-114330000D03*
X175840000Y-116870000D03*
X178380000Y-116870000D03*
X175840000Y-119410000D03*
X178380000Y-119410000D03*
X175840000Y-121950000D03*
X178380000Y-121950000D03*
X175840000Y-124490000D03*
X178380000Y-124490000D03*
X175840000Y-127030000D03*
X178380000Y-127030000D03*
%TD*%
D17*
%TO.C,R3*%
X151580000Y-127865000D03*
X141420000Y-127865000D03*
%TD*%
D13*
%TO.C,J2*%
X139165000Y-103585000D03*
D14*
X139165000Y-106125000D03*
X139165000Y-108665000D03*
X139165000Y-111205000D03*
X139165000Y-113745000D03*
X139165000Y-116285000D03*
X139165000Y-118825000D03*
X139165000Y-121365000D03*
%TD*%
D17*
%TO.C,R6*%
X170255000Y-103365000D03*
X160095000Y-103365000D03*
%TD*%
%TO.C,C1*%
X125500000Y-97000000D03*
X130500000Y-97000000D03*
%TD*%
%TO.C,R5*%
X133175000Y-123500000D03*
X123015000Y-123500000D03*
%TD*%
%TO.C,R7*%
X170255000Y-108365000D03*
X160095000Y-108365000D03*
%TD*%
%TO.C,R2*%
X123095000Y-108500000D03*
X133255000Y-108500000D03*
%TD*%
%TO.C,R4*%
X133255000Y-118500000D03*
X123095000Y-118500000D03*
%TD*%
%TO.C,R1*%
X123095000Y-103500000D03*
X133255000Y-103500000D03*
%TD*%
M02*
