%TF.GenerationSoftware,KiCad,Pcbnew,9.0.5*%
%TF.CreationDate,2025-10-27T10:50:58+09:00*%
%TF.ProjectId,GYRO_PCB,4759524f-5f50-4434-922e-6b696361645f,rev?*%
%TF.SameCoordinates,Original*%
%TF.FileFunction,Copper,L2,Bot*%
%TF.FilePolarity,Positive*%
%FSLAX46Y46*%
G04 Gerber Fmt 4.6, Leading zero omitted, Abs format (unit mm)*
G04 Created by KiCad (PCBNEW 9.0.5) date 2025-10-27 10:50:58*
%MOMM*%
%LPD*%
G01*
G04 APERTURE LIST*
G04 Aperture macros list*
%AMRoundRect*
0 Rectangle with rounded corners*
0 $1 Rounding radius*
0 $2 $3 $4 $5 $6 $7 $8 $9 X,Y pos of 4 corners*
0 Add a 4 corners polygon primitive as box body*
4,1,4,$2,$3,$4,$5,$6,$7,$8,$9,$2,$3,0*
0 Add four circle primitives for the rounded corners*
1,1,$1+$1,$2,$3*
1,1,$1+$1,$4,$5*
1,1,$1+$1,$6,$7*
1,1,$1+$1,$8,$9*
0 Add four rect primitives between the rounded corners*
20,1,$1+$1,$2,$3,$4,$5,0*
20,1,$1+$1,$4,$5,$6,$7,0*
20,1,$1+$1,$6,$7,$8,$9,0*
20,1,$1+$1,$8,$9,$2,$3,0*%
G04 Aperture macros list end*
%TA.AperFunction,ComponentPad*%
%ADD10RoundRect,0.250001X1.149999X-1.149999X1.149999X1.149999X-1.149999X1.149999X-1.149999X-1.149999X0*%
%TD*%
%TA.AperFunction,ComponentPad*%
%ADD11C,2.800000*%
%TD*%
%TA.AperFunction,ComponentPad*%
%ADD12R,2.000000X2.000000*%
%TD*%
%TA.AperFunction,ComponentPad*%
%ADD13R,1.700000X1.700000*%
%TD*%
%TA.AperFunction,ComponentPad*%
%ADD14C,1.700000*%
%TD*%
%TA.AperFunction,ComponentPad*%
%ADD15R,1.800000X1.800000*%
%TD*%
%TA.AperFunction,ComponentPad*%
%ADD16C,1.800000*%
%TD*%
%TA.AperFunction,ComponentPad*%
%ADD17C,1.600000*%
%TD*%
%TA.AperFunction,ComponentPad*%
%ADD18R,1.530000X1.530000*%
%TD*%
%TA.AperFunction,ComponentPad*%
%ADD19C,1.530000*%
%TD*%
G04 APERTURE END LIST*
D10*
%TO.P,J5,1,Pin_1*%
%TO.N,BAT*%
X174000000Y-73500000D03*
D11*
%TO.P,J5,2,Pin_2*%
%TO.N,Net-(J4-Pin_1)*%
X174000000Y-68500000D03*
%TD*%
D12*
%TO.P,LM2596,IN+,VIN+*%
%TO.N,BAT*%
X165500000Y-74105000D03*
%TO.P,LM2596,IN-,VIN-*%
%TO.N,GND*%
X165500000Y-54505000D03*
%TO.P,LM2596,OUT+,OUT+*%
%TO.N,NUCLEO_E5V*%
X120700000Y-73945000D03*
%TO.P,LM2596,OUT-,OUT-*%
%TO.N,GND*%
X120700000Y-54905000D03*
%TD*%
D13*
%TO.P,J1,1,SCL*%
%TO.N,unconnected-(J1-SCL-Pad1)*%
X157080000Y-90000000D03*
D14*
%TO.P,J1,2,SDA*%
%TO.N,unconnected-(J1-SDA-Pad2)*%
X154540000Y-90000000D03*
%TO.P,J1,3,GND*%
%TO.N,unconnected-(J1-GND-Pad3)*%
X152000000Y-90000000D03*
%TO.P,J1,4,VCC*%
%TO.N,unconnected-(J1-VCC-Pad4)*%
X149460000Y-90000000D03*
%TO.P,J1,5,SCL*%
%TO.N,NUCLEO_GYRO_I2C1_SCL*%
X157080000Y-87460000D03*
%TO.P,J1,6,SDA*%
%TO.N,NUCLEO_GYRO_I2C1_SDA*%
X154540000Y-87460000D03*
%TO.P,J1,7,GND*%
%TO.N,GND*%
X152000000Y-87460000D03*
%TO.P,J1,8,VCC*%
%TO.N,+3V3*%
X149460000Y-87460000D03*
%TD*%
D15*
%TO.P,D1,1,K*%
%TO.N,GND*%
X128000000Y-81460000D03*
D16*
%TO.P,D1,2,A*%
%TO.N,Net-(D1-A)*%
X128000000Y-84000000D03*
%TD*%
D17*
%TO.P,R8,1*%
%TO.N,LED*%
X122920000Y-91000000D03*
%TO.P,R8,2*%
%TO.N,Net-(D1-A)*%
X133080000Y-91000000D03*
%TD*%
D10*
%TO.P,J4,1,Pin_1*%
%TO.N,Net-(J4-Pin_1)*%
X173967500Y-59750000D03*
D11*
%TO.P,J4,2,Pin_2*%
%TO.N,GND*%
X173967500Y-54750000D03*
%TD*%
D14*
%TO.P,J3,9,W#/DQ2*%
%TO.N,Net-(J3-W#{slash}DQ2)*%
X154405000Y-121405000D03*
%TO.P,J3,10,VSS*%
%TO.N,GND*%
X154405000Y-118865000D03*
%TO.P,J3,11,DNU_4*%
%TO.N,unconnected-(J3-DNU_4-Pad11)*%
X154405000Y-116325000D03*
%TO.P,J3,12,DNU_5*%
%TO.N,unconnected-(J3-DNU_5-Pad12)*%
X154405000Y-113785000D03*
%TO.P,J3,13,DNU_6*%
%TO.N,unconnected-(J3-DNU_6-Pad13)*%
X154405000Y-111245000D03*
%TO.P,J3,14,DNU_7*%
%TO.N,unconnected-(J3-DNU_7-Pad14)*%
X154405000Y-108705000D03*
%TO.P,J3,15,DQ0*%
%TO.N,NUCLEO_FLASH_SPI2_MOSI*%
X154405000Y-106165000D03*
D13*
%TO.P,J3,16,C*%
%TO.N,NUCLEO_FLASH_SCLK*%
X154405000Y-103625000D03*
%TD*%
D18*
%TO.P,U1,CN7_1,PC10*%
%TO.N,unconnected-(U1-PC10-PadCN7_1)*%
X114880000Y-81310000D03*
D19*
%TO.P,U1,CN7_2,PC11*%
%TO.N,unconnected-(U1-PC11-PadCN7_2)*%
X117420000Y-81310000D03*
%TO.P,U1,CN7_3,PC12*%
%TO.N,unconnected-(U1-PC12-PadCN7_3)*%
X114880000Y-83850000D03*
%TO.P,U1,CN7_4,PD2*%
%TO.N,unconnected-(U1-PD2-PadCN7_4)*%
X117420000Y-83850000D03*
%TO.P,U1,CN7_5,VDD*%
%TO.N,unconnected-(U1-VDD-PadCN7_5)*%
X114880000Y-86390000D03*
%TO.P,U1,CN7_6,E5V*%
%TO.N,NUCLEO_E5V*%
X117420000Y-86390000D03*
%TO.P,U1,CN7_7,~{BOOT0}*%
%TO.N,unconnected-(U1-~{BOOT0}-PadCN7_7)*%
X114880000Y-88930000D03*
%TO.P,U1,CN7_8,GND*%
%TO.N,GND*%
X117420000Y-88930000D03*
%TO.P,U1,CN7_9,NC*%
%TO.N,unconnected-(U1-NC-PadCN7_9)*%
X114880000Y-91470000D03*
%TO.P,U1,CN7_10,NC*%
%TO.N,unconnected-(U1-NC-PadCN7_10)*%
X117420000Y-91470000D03*
%TO.P,U1,CN7_11,NC*%
%TO.N,unconnected-(U1-NC-PadCN7_11)*%
X114880000Y-94010000D03*
%TO.P,U1,CN7_12,IOREF*%
%TO.N,unconnected-(U1-IOREF-PadCN7_12)*%
X117420000Y-94010000D03*
%TO.P,U1,CN7_13,STLINK_TMS/PA13*%
%TO.N,unconnected-(U1-STLINK_TMS{slash}PA13-PadCN7_13)*%
X114880000Y-96550000D03*
%TO.P,U1,CN7_14,~{RESET}*%
%TO.N,unconnected-(U1-~{RESET}-PadCN7_14)*%
X117420000Y-96550000D03*
%TO.P,U1,CN7_15,STLINK_TCK/PA14*%
%TO.N,unconnected-(U1-STLINK_TCK{slash}PA14-PadCN7_15)*%
X114880000Y-99090000D03*
%TO.P,U1,CN7_16,+3V3*%
%TO.N,+3V3*%
X117420000Y-99090000D03*
%TO.P,U1,CN7_17,PA15*%
%TO.N,LED*%
X114880000Y-101630000D03*
%TO.P,U1,CN7_18,+5V*%
%TO.N,unconnected-(U1-+5V-PadCN7_18)*%
X117420000Y-101630000D03*
%TO.P,U1,CN7_19,GND*%
%TO.N,GND*%
X114880000Y-104170000D03*
%TO.P,U1,CN7_20,GND*%
X117420000Y-104170000D03*
%TO.P,U1,CN7_21,PB7*%
%TO.N,unconnected-(U1-PB7-PadCN7_21)*%
X114880000Y-106710000D03*
%TO.P,U1,CN7_22,GND*%
%TO.N,GND*%
X117420000Y-106710000D03*
%TO.P,U1,CN7_23,PC13*%
%TO.N,unconnected-(U1-PC13-PadCN7_23)*%
X114880000Y-109250000D03*
%TO.P,U1,CN7_24,VIN*%
%TO.N,unconnected-(U1-VIN-PadCN7_24)*%
X117420000Y-109250000D03*
%TO.P,U1,CN7_25,PC14*%
%TO.N,unconnected-(U1-PC14-PadCN7_25)*%
X114880000Y-111790000D03*
%TO.P,U1,CN7_26,NC*%
%TO.N,unconnected-(U1-NC-PadCN7_26)*%
X117420000Y-111790000D03*
%TO.P,U1,CN7_27,PC15*%
%TO.N,unconnected-(U1-PC15-PadCN7_27)*%
X114880000Y-114330000D03*
%TO.P,U1,CN7_28,PA0*%
%TO.N,unconnected-(U1-PA0-PadCN7_28)*%
X117420000Y-114330000D03*
%TO.P,U1,CN7_29,PH0*%
%TO.N,unconnected-(U1-PH0-PadCN7_29)*%
X114880000Y-116870000D03*
%TO.P,U1,CN7_30,PA1*%
%TO.N,unconnected-(U1-PA1-PadCN7_30)*%
X117420000Y-116870000D03*
%TO.P,U1,CN7_31,PH1*%
%TO.N,unconnected-(U1-PH1-PadCN7_31)*%
X114880000Y-119410000D03*
%TO.P,U1,CN7_32,PA4*%
%TO.N,NUCLEO_FLASH_CS*%
X117420000Y-119410000D03*
%TO.P,U1,CN7_33,VBAT*%
%TO.N,unconnected-(U1-VBAT-PadCN7_33)*%
X114880000Y-121950000D03*
%TO.P,U1,CN7_34,PB0*%
%TO.N,unconnected-(U1-PB0-PadCN7_34)*%
X117420000Y-121950000D03*
%TO.P,U1,CN7_35,PC2*%
%TO.N,unconnected-(U1-PC2-PadCN7_35)*%
X114880000Y-124490000D03*
%TO.P,U1,CN7_36,PC1*%
%TO.N,unconnected-(U1-PC1-PadCN7_36)*%
X117420000Y-124490000D03*
%TO.P,U1,CN7_37,PC3*%
%TO.N,unconnected-(U1-PC3-PadCN7_37)*%
X114880000Y-127030000D03*
%TO.P,U1,CN7_38,PC0*%
%TO.N,unconnected-(U1-PC0-PadCN7_38)*%
X117420000Y-127030000D03*
D18*
%TO.P,U1,CN10_1,PC9*%
%TO.N,unconnected-(U1-PC9-PadCN10_1)*%
X175840000Y-81310000D03*
D19*
%TO.P,U1,CN10_2,PC8*%
%TO.N,unconnected-(U1-PC8-PadCN10_2)*%
X178380000Y-81310000D03*
%TO.P,U1,CN10_3,PB8*%
%TO.N,NUCLEO_GYRO_I2C1_SCL*%
X175840000Y-83850000D03*
%TO.P,U1,CN10_4,PC6*%
%TO.N,unconnected-(U1-PC6-PadCN10_4)*%
X178380000Y-83850000D03*
%TO.P,U1,CN10_5,PB9*%
%TO.N,NUCLEO_GYRO_I2C1_SDA*%
X175840000Y-86390000D03*
%TO.P,U1,CN10_6,PC5*%
%TO.N,unconnected-(U1-PC5-PadCN10_6)*%
X178380000Y-86390000D03*
%TO.P,U1,CN10_7,AVDD*%
%TO.N,unconnected-(U1-AVDD-PadCN10_7)*%
X175840000Y-88930000D03*
%TO.P,U1,CN10_8,U5V*%
%TO.N,unconnected-(U1-U5V-PadCN10_8)*%
X178380000Y-88930000D03*
%TO.P,U1,CN10_9,GND*%
%TO.N,GND*%
X175840000Y-91470000D03*
%TO.P,U1,CN10_10,NC*%
%TO.N,unconnected-(U1-NC-PadCN10_10)*%
X178380000Y-91470000D03*
%TO.P,U1,CN10_11,PA5*%
%TO.N,unconnected-(U1-PA5-PadCN10_11)*%
X175840000Y-94010000D03*
%TO.P,U1,CN10_12,PA12*%
%TO.N,unconnected-(U1-PA12-PadCN10_12)*%
X178380000Y-94010000D03*
%TO.P,U1,CN10_13,PA6*%
%TO.N,unconnected-(U1-PA6-PadCN10_13)*%
X175840000Y-96550000D03*
%TO.P,U1,CN10_14,PA11*%
%TO.N,unconnected-(U1-PA11-PadCN10_14)*%
X178380000Y-96550000D03*
%TO.P,U1,CN10_15,PA7*%
%TO.N,unconnected-(U1-PA7-PadCN10_15)*%
X175840000Y-99090000D03*
%TO.P,U1,CN10_16,PB12*%
%TO.N,unconnected-(U1-PB12-PadCN10_16)*%
X178380000Y-99090000D03*
%TO.P,U1,CN10_17,PB6*%
%TO.N,unconnected-(U1-PB6-PadCN10_17)*%
X175840000Y-101630000D03*
%TO.P,U1,CN10_18,NC*%
%TO.N,unconnected-(U1-NC-PadCN10_18)*%
X178380000Y-101630000D03*
%TO.P,U1,CN10_19,PC7*%
%TO.N,NUCLEO_FLASH_SCLK*%
X175840000Y-104170000D03*
%TO.P,U1,CN10_20,GND*%
%TO.N,GND*%
X178380000Y-104170000D03*
%TO.P,U1,CN10_21,PA9*%
%TO.N,unconnected-(U1-PA9-PadCN10_21)*%
X175840000Y-106710000D03*
%TO.P,U1,CN10_22,PB2*%
%TO.N,unconnected-(U1-PB2-PadCN10_22)*%
X178380000Y-106710000D03*
%TO.P,U1,CN10_23,PA8*%
%TO.N,unconnected-(U1-PA8-PadCN10_23)*%
X175840000Y-109250000D03*
%TO.P,U1,CN10_24,PB1*%
%TO.N,unconnected-(U1-PB1-PadCN10_24)*%
X178380000Y-109250000D03*
%TO.P,U1,CN10_25,PB10*%
%TO.N,unconnected-(U1-PB10-PadCN10_25)*%
X175840000Y-111790000D03*
%TO.P,U1,CN10_26,PB15*%
%TO.N,NUCLEO_FLASH_SPI2_MOSI*%
X178380000Y-111790000D03*
%TO.P,U1,CN10_27,PB4*%
%TO.N,unconnected-(U1-PB4-PadCN10_27)*%
X175840000Y-114330000D03*
%TO.P,U1,CN10_28,PB14*%
%TO.N,NUCLEO_FLASH_SPI2_MISO*%
X178380000Y-114330000D03*
%TO.P,U1,CN10_29,PB5*%
%TO.N,unconnected-(U1-PB5-PadCN10_29)*%
X175840000Y-116870000D03*
%TO.P,U1,CN10_30,PB13*%
%TO.N,unconnected-(U1-PB13-PadCN10_30)*%
X178380000Y-116870000D03*
%TO.P,U1,CN10_31,STLINK_SWO/PB3*%
%TO.N,unconnected-(U1-STLINK_SWO{slash}PB3-PadCN10_31)*%
X175840000Y-119410000D03*
%TO.P,U1,CN10_32,AGND*%
%TO.N,unconnected-(U1-AGND-PadCN10_32)*%
X178380000Y-119410000D03*
%TO.P,U1,CN10_33,PA10*%
%TO.N,unconnected-(U1-PA10-PadCN10_33)*%
X175840000Y-121950000D03*
%TO.P,U1,CN10_34,PC4*%
%TO.N,unconnected-(U1-PC4-PadCN10_34)*%
X178380000Y-121950000D03*
%TO.P,U1,CN10_35,STLINK_UART_TX/PA2*%
%TO.N,unconnected-(U1-STLINK_UART_TX{slash}PA2-PadCN10_35)*%
X175840000Y-124490000D03*
%TO.P,U1,CN10_36,NC*%
%TO.N,unconnected-(U1-NC-PadCN10_36)*%
X178380000Y-124490000D03*
%TO.P,U1,CN10_37,STLINK_UART_RX/PA3*%
%TO.N,unconnected-(U1-STLINK_UART_RX{slash}PA3-PadCN10_37)*%
X175840000Y-127030000D03*
%TO.P,U1,CN10_38,NC*%
%TO.N,unconnected-(U1-NC-PadCN10_38)*%
X178380000Y-127030000D03*
%TD*%
D17*
%TO.P,R3,1*%
%TO.N,Net-(J3-W#{slash}DQ2)*%
X151580000Y-127865000D03*
%TO.P,R3,2*%
%TO.N,+3V3*%
X141420000Y-127865000D03*
%TD*%
D13*
%TO.P,J2,1,DQ3/HOLD#*%
%TO.N,Net-(J2-DQ3{slash}HOLD#)*%
X139165000Y-103585000D03*
D14*
%TO.P,J2,2,VCC*%
%TO.N,+3V3*%
X139165000Y-106125000D03*
%TO.P,J2,3,RESET#*%
%TO.N,Net-(J2-RESET#)*%
X139165000Y-108665000D03*
%TO.P,J2,4,DNU_1*%
%TO.N,unconnected-(J2-DNU_1-Pad4)*%
X139165000Y-111205000D03*
%TO.P,J2,5,DNU_2*%
%TO.N,unconnected-(J2-DNU_2-Pad5)*%
X139165000Y-113745000D03*
%TO.P,J2,6,DNU_3*%
%TO.N,unconnected-(J2-DNU_3-Pad6)*%
X139165000Y-116285000D03*
%TO.P,J2,7,S#*%
%TO.N,NUCLEO_FLASH_CS*%
X139165000Y-118825000D03*
%TO.P,J2,8,DQ1*%
%TO.N,NUCLEO_FLASH_SPI2_MISO*%
X139165000Y-121365000D03*
%TD*%
D17*
%TO.P,R6,1*%
%TO.N,+3V3*%
X170255000Y-103365000D03*
%TO.P,R6,2*%
%TO.N,NUCLEO_FLASH_SCLK*%
X160095000Y-103365000D03*
%TD*%
%TO.P,C1,1*%
%TO.N,+3V3*%
X125500000Y-97000000D03*
%TO.P,C1,2*%
%TO.N,GND*%
X130500000Y-97000000D03*
%TD*%
%TO.P,R5,1*%
%TO.N,NUCLEO_FLASH_SPI2_MISO*%
X133175000Y-123500000D03*
%TO.P,R5,2*%
%TO.N,+3V3*%
X123015000Y-123500000D03*
%TD*%
%TO.P,R7,1*%
%TO.N,+3V3*%
X170255000Y-108365000D03*
%TO.P,R7,2*%
%TO.N,NUCLEO_FLASH_SPI2_MOSI*%
X160095000Y-108365000D03*
%TD*%
%TO.P,R2,1*%
%TO.N,+3V3*%
X123095000Y-108500000D03*
%TO.P,R2,2*%
%TO.N,Net-(J2-RESET#)*%
X133255000Y-108500000D03*
%TD*%
%TO.P,R4,1*%
%TO.N,NUCLEO_FLASH_CS*%
X133255000Y-118500000D03*
%TO.P,R4,2*%
%TO.N,+3V3*%
X123095000Y-118500000D03*
%TD*%
%TO.P,R1,1*%
%TO.N,+3V3*%
X123095000Y-103500000D03*
%TO.P,R1,2*%
%TO.N,Net-(J2-DQ3{slash}HOLD#)*%
X133255000Y-103500000D03*
%TD*%
M02*
