M48
; DRILL file {KiCad 9.0.5} date 2025-10-27T10:51:43+0900
; FORMAT={-:-/ absolute / inch / decimal}
; #@! TF.CreationDate,2025-10-27T10:51:43+09:00
; #@! TF.GenerationSoftware,Kicad,Pcbnew,9.0.5
; #@! TF.FileFunction,Plated,1,2,PTH
FMAT,2
INCH
; #@! TA.AperFunction,Plated,PTH,ComponentDrill
T1C0.0300
; #@! TA.AperFunction,Plated,PTH,ComponentDrill
T2C0.0315
; #@! TA.AperFunction,Plated,PTH,ComponentDrill
T3C0.0354
; #@! TA.AperFunction,Plated,PTH,ComponentDrill
T4C0.0394
; #@! TA.AperFunction,Plated,PTH,ComponentDrill
T5C0.0402
; #@! TA.AperFunction,Plated,PTH,ComponentDrill
T6C0.0512
%
G90
G05
T1
X4.752Y-2.1616
X4.752Y-2.9112
X6.5157Y-2.1459
X6.5157Y-2.9175
T2
X4.8394Y-3.5827
X4.8431Y-4.8622
X4.8463Y-4.0748
X4.8463Y-4.2717
X4.8463Y-4.6654
X4.9409Y-3.8189
X5.1378Y-3.8189
X5.2394Y-3.5827
X5.2431Y-4.8622
X5.2463Y-4.0748
X5.2463Y-4.2717
X5.2463Y-4.6654
X5.5677Y-5.0341
X5.9677Y-5.0341
X6.303Y-4.0695
X6.303Y-4.2663
X6.703Y-4.0695
X6.703Y-4.2663
T3
X5.0394Y-3.2071
X5.0394Y-3.3071
T4
X5.4789Y-4.0781
X5.4789Y-4.1781
X5.4789Y-4.2781
X5.4789Y-4.3781
X5.4789Y-4.4781
X5.4789Y-4.5781
X5.4789Y-4.6781
X5.4789Y-4.7781
X5.8843Y-3.4433
X5.8843Y-3.5433
X5.9843Y-3.4433
X5.9843Y-3.5433
X6.0789Y-4.0797
X6.0789Y-4.1797
X6.0789Y-4.2797
X6.0789Y-4.3797
X6.0789Y-4.4797
X6.0789Y-4.5797
X6.0789Y-4.6797
X6.0789Y-4.7797
X6.0843Y-3.4433
X6.0843Y-3.5433
X6.1843Y-3.4433
X6.1843Y-3.5433
T5
X4.5228Y-3.2012
X4.5228Y-3.3012
X4.5228Y-3.4012
X4.5228Y-3.5012
X4.5228Y-3.6012
X4.5228Y-3.7012
X4.5228Y-3.8012
X4.5228Y-3.9012
X4.5228Y-4.0012
X4.5228Y-4.1012
X4.5228Y-4.2012
X4.5228Y-4.3012
X4.5228Y-4.4012
X4.5228Y-4.5012
X4.5228Y-4.6012
X4.5228Y-4.7012
X4.5228Y-4.8012
X4.5228Y-4.9012
X4.5228Y-5.0012
X4.6228Y-3.2012
X4.6228Y-3.3012
X4.6228Y-3.4012
X4.6228Y-3.5012
X4.6228Y-3.6012
X4.6228Y-3.7012
X4.6228Y-3.8012
X4.6228Y-3.9012
X4.6228Y-4.0012
X4.6228Y-4.1012
X4.6228Y-4.2012
X4.6228Y-4.3012
X4.6228Y-4.4012
X4.6228Y-4.5012
X4.6228Y-4.6012
X4.6228Y-4.7012
X4.6228Y-4.8012
X4.6228Y-4.9012
X4.6228Y-5.0012
X6.9228Y-3.2012
X6.9228Y-3.3012
X6.9228Y-3.4012
X6.9228Y-3.5012
X6.9228Y-3.6012
X6.9228Y-3.7012
X6.9228Y-3.8012
X6.9228Y-3.9012
X6.9228Y-4.0012
X6.9228Y-4.1012
X6.9228Y-4.2012
X6.9228Y-4.3012
X6.9228Y-4.4012
X6.9228Y-4.5012
X6.9228Y-4.6012
X6.9228Y-4.7012
X6.9228Y-4.8012
X6.9228Y-4.9012
X6.9228Y-5.0012
X7.0228Y-3.2012
X7.0228Y-3.3012
X7.0228Y-3.4012
X7.0228Y-3.5012
X7.0228Y-3.6012
X7.0228Y-3.7012
X7.0228Y-3.8012
X7.0228Y-3.9012
X7.0228Y-4.0012
X7.0228Y-4.1012
X7.0228Y-4.2012
X7.0228Y-4.3012
X7.0228Y-4.4012
X7.0228Y-4.5012
X7.0228Y-4.6012
X7.0228Y-4.7012
X7.0228Y-4.8012
X7.0228Y-4.9012
X7.0228Y-5.0012
T6
X6.8491Y-2.1555
X6.8491Y-2.3524
X6.8504Y-2.6969
X6.8504Y-2.8937
M30
